<?xml version="1.0" encoding="UTF-8" standalone="no"?>
<svg
   xmlns:dc="http://purl.org/dc/elements/1.1/"
   xmlns:cc="http://creativecommons.org/ns#"
   xmlns:rdf="http://www.w3.org/1999/02/22-rdf-syntax-ns#"
   xmlns:svg="http://www.w3.org/2000/svg"
   xmlns="http://www.w3.org/2000/svg"
   id="Layer_1"
   data-name="Layer 1"
   viewBox="0 0 170.46001 62.87"
   version="1.1"
   width="170.46001"
   height="62.869999">
  <path
     class="cls-1"
     d="M 46.15,0 C 13.78,0 8.69,22.42 5.69,35.82 L 5.57,36.34 C 1.74,53.34 0.44,60.46 0.42,60.53 L 0,62.87 h 124.34 c 32.37,0 37.41,-22.43 40.43,-35.83 l 0.11,-0.52 c 3.83,-17 5.14,-24.12 5.16,-24.19 L 170.46,0 Z M 5.69,58.36 C 6.17,56.2 7.02,52.5 8.39,46.95 l 0.07,-0.3 c 1.89,-7.68 4.47,-18.2 22.23,-18.2 h 74.07 c -0.48,2.16 -1.33,5.86 -2.69,11.41 l -0.08,0.3 c -1.88,7.68 -4.47,18.2 -22.23,18.2 z m 155.33,-32.71 -0.12,0.52 c -2.93,13 -7.36,32.73 -36.56,32.73 H 94.69 c 7.92,-4.57 9.91,-12.7 11.16,-17.8 l 0.08,-0.29 c 2.41,-9.8 3.2,-13.79 3.24,-14 l 0.47,-2.37 H 30.69 c -10.29,0 -16.33,3.36 -20,7.65 3.16,-12.62 9.54,-28.18 35.5,-28.18 h 119.5 c -0.66,3.35 -2.09,10.28 -4.67,21.74 z"
     id="path8"
     style="fill:#008de4;fill-opacity:1" />
  <path
     id="path847"
     d="m 95.831378,58.254179 c 3.985381,-2.671988 6.909302,-6.780694 8.712502,-12.242848 1.06676,-3.231353 5.10465,-20.235396 5.10465,-21.496288 0,-0.188029 -4.9964,-0.207936 -41.124205,-0.163846 -37.831653,0.04617 -41.258119,0.07003 -42.796807,0.298017 -5.741478,0.85072 -9.577682,2.426691 -13.039109,5.356667 -0.651997,0.551892 -1.301485,1.180533 -1.443307,1.396981 -0.437525,0.667748 -0.381088,0.175989 0.226559,-1.974091 1.634106,-5.782078 4.133496,-10.94771 6.979616,-14.425172 4.327535,-5.2874928 10.466182,-8.754348 18.019662,-10.1767626 4.516702,-0.8505512 -0.632276,-0.7864601 67.188621,-0.83632 59.22425,-0.04354 62.00258,-0.034055 61.93055,0.2114149 -0.0415,0.1413499 -0.33724,1.5332682 -0.65724,3.0931518 -1.46791,7.1550699 -4.19319,19.4694189 -5.19839,23.4891559 -2.14762,8.588239 -4.96243,14.313675 -9.21454,18.742775 -4.65944,4.85338 -10.64356,7.631518 -19.2003,8.913772 -1.4953,0.224075 -3.50729,0.255896 -18.9804,0.300177 l -17.307803,0.04953 z"
     style="fill:#008de4;fill-opacity:1;stroke:#008de4;stroke-width:2.54526472;stroke-linecap:square;stroke-linejoin:miter;stroke-miterlimit:4;stroke-dasharray:none;stroke-opacity:1;paint-order:markers stroke fill" />
</svg>
